<?xml version="1.0" encoding="UTF-8" standalone="no"?>
<!-- Created with Inkscape (http://www.inkscape.org/) -->

<svg
   width="81.268028mm"
   height="57.251801mm"
   viewBox="0 0 81.268028 57.2518"
   version="1.1"
   id="svg5"
   inkscape:version="1.1.1 (3bf5ae0d25, 2021-09-20)"
   sodipodi:docname="verde.svg"
   xmlns:inkscape="http://www.inkscape.org/namespaces/inkscape"
   xmlns:sodipodi="http://sodipodi.sourceforge.net/DTD/sodipodi-0.dtd"
   xmlns="http://www.w3.org/2000/svg"
   xmlns:svg="http://www.w3.org/2000/svg">
  <sodipodi:namedview
     id="namedview7"
     pagecolor="#ffffff"
     bordercolor="#666666"
     borderopacity="1.0"
     inkscape:pageshadow="2"
     inkscape:pageopacity="0.0"
     inkscape:pagecheckerboard="0"
     inkscape:document-units="mm"
     showgrid="false"
     fit-margin-top="0"
     fit-margin-left="0"
     fit-margin-right="0"
     fit-margin-bottom="0"
     inkscape:zoom="0.42582772"
     inkscape:cx="804.31588"
     inkscape:cy="82.192864"
     inkscape:window-width="1366"
     inkscape:window-height="697"
     inkscape:window-x="-8"
     inkscape:window-y="-8"
     inkscape:window-maximized="1"
     inkscape:current-layer="layer1" />
  <defs
     id="defs2" />
  <g
     inkscape:label="Camada 1"
     inkscape:groupmode="layer"
     id="layer1"
     transform="translate(-72.486012,-113.33042)">
    <path
       style="fill:#5fd35f;stroke-width:0.0846667"
       d="m 75.957346,170.4772 c -0.34925,-0.0636 -0.793082,-0.17162 -0.986292,-0.23997 -0.582717,-0.20613 -1.807709,-0.76673 -1.807709,-0.82727 0,-0.0566 29.677525,-24.39863 29.786985,-24.43176 0.0319,-0.01 2.32175,1.84771 5.08853,4.1275 2.76678,2.27978 5.056,4.14506 5.08716,4.14506 0.0312,0 2.32038,-1.86528 5.08716,-4.14506 2.76678,-2.27979 5.0565,-4.13716 5.08826,-4.1275 0.1376,0.0418 29.78725,23.78555 29.78725,23.85389 0,0.135 -1.0172,0.92684 -1.51028,1.17569 -0.26366,0.13307 -0.68893,0.3129 -0.94505,0.39963 -0.45113,0.15276 -1.6145,0.15812 -37.25334,0.17159 -30.782482,0.0116 -36.891331,-0.005 -37.422674,-0.1018 z m -3.471334,-28.23014 v -24.7414 l 0.402167,0.34321 c 0.969348,0.82724 26.979299,24.61547 26.997645,24.69155 0.01643,0.0682 -26.258732,23.53518 -27.148122,24.24669 l -0.25169,0.20135 z m 67.548698,12.55638 c -7.52893,-6.69809 -13.67978,-12.21645 -13.66855,-12.26302 0.0112,-0.0466 6.17128,-5.6972 13.68898,-12.55698 l 13.66855,-12.47231 0.0215,12.36648 c 0.0118,6.80156 0.0118,17.93246 0,24.73533 l -0.0215,12.36884 z M 93.177594,128.85968 C 82.239608,121.35856 73.252245,115.18304 73.205679,115.1363 c -0.121671,-0.12211 0.722313,-0.85004 1.397,-1.2049 0.302683,-0.1592 0.778933,-0.35955 1.058333,-0.44521 0.489939,-0.15023 1.82199,-0.15577 37.465008,-0.15577 35.64302,0 36.97507,0.005 37.46501,0.15577 0.2794,0.0857 0.75565,0.28601 1.05833,0.44521 0.67469,0.35486 1.51867,1.08279 1.397,1.2049 -0.1415,0.14201 -39.85465,27.36179 -39.92034,27.36179 -0.0336,0 -9.01044,-6.13728 -19.948426,-13.63841 z"
       id="path1073" />
  </g>
</svg>
