<?xml version="1.0" encoding="UTF-8"?>
<!DOCTYPE svg PUBLIC "-//W3C//DTD SVG 1.1//EN" "http://www.w3.org/Graphics/SVG/1.1/DTD/svg11.dtd">
<!-- Creator: CorelDRAW 2021 (64-Bit) -->
<svg xmlns="http://www.w3.org/2000/svg" xml:space="preserve" width="54.0871mm" height="46.1327mm" version="1.1" style="shape-rendering:geometricPrecision; text-rendering:geometricPrecision; image-rendering:optimizeQuality; fill-rule:evenodd; clip-rule:evenodd"
viewBox="0 0 703.91 600.38"
 xmlns:xlink="http://www.w3.org/1999/xlink"
 xmlns:xodm="http://www.corel.com/coreldraw/odm/2003">
 <defs>
  <style type="text/css">
   <![CDATA[
    .str3 {stroke:#FF6633;stroke-width:2.2;stroke-linecap:round;stroke-linejoin:round;stroke-miterlimit:22.9256;stroke-opacity:0.490196}
    .str0 {stroke:black;stroke-width:2.2;stroke-linecap:round;stroke-linejoin:round;stroke-miterlimit:22.9256}
    .str2 {stroke:#A42462;stroke-width:2.2;stroke-linecap:round;stroke-linejoin:round;stroke-miterlimit:22.9256}
    .str1 {stroke:#A42462;stroke-width:0.99;stroke-linecap:round;stroke-linejoin:round;stroke-miterlimit:22.9256}
    .fil2 {fill:none}
    .fil5 {fill:none;fill-rule:nonzero}
    .fil6 {fill:#A42462}
    .fil0 {fill:#FDFDFD}
    .fil8 {fill:white}
    .fil3 {fill:#A42462;fill-rule:nonzero}
    .fil10 {fill:#FF6633;fill-opacity:0.250980}
    .fil9 {fill:#FF6633;fill-opacity:0.600000}
    .fil4 {fill:url(#id9)}
    .fil1 {fill:url(#id10)}
    .fil7 {fill:url(#id11);fill-opacity:0.490196}
   ]]>
  </style>
   <clipPath id="id0">
    <path d="M132.1 294.9c93.24,29.52 142.85,-37.25 164.54,-51.24 -6.97,-16.53 -31.54,-39.01 -46.88,-48.43 -83.93,100.11 -187.07,5.26 -156.98,-73.46 13.74,-35.94 50.89,-64.69 105.25,-53.44 40.98,8.48 124.27,111.36 168.14,153.49 29.97,28.78 54.96,55.89 91.28,69.05 83.18,30.14 157.1,-11.52 192.15,-94.03 4.92,-9.75 5.94,-19.5 7.05,-28.88 1.34,-11.25 2.14,-21.97 0.94,-31.53 -2.58,-20.55 -8.52,-36.93 -18.26,-59.29 -28,-53.92 -74.58,-74.08 -131.4,-74.08l1.19 62c123.93,25.74 95.68,135.39 40.09,164.13 -48.64,25.14 -82.73,0.69 -106.34,-24.43 -35.83,-38.12 -75.7,-71.96 -108.39,-107.34 -74.41,-80.55 -174.72,-145.91 -268.79,-48.89 -74.06,76.39 -41.43,212.24 66.41,246.38z"/>
   </clipPath>
   <clipPath id="id1" style="clip-rule:nonzero">
    <path d="M230.54 410.44c10.22,0 17.95,-7.74 17.95,-17.34 0,-9.91 -7.74,-17.64 -17.95,-17.64 -9.91,0 -17.95,7.74 -17.95,17.64 0,9.6 8.05,17.34 17.95,17.34zm-14.86 185.73l28.79 0 0 -157.56 -28.79 0 0 157.56zm156.94 -228.45l0 81.41c-8.05,-8.05 -19.81,-13.93 -34.05,-13.93 -33.74,0 -58.2,29.41 -58.2,83.58 0,54.48 21.67,81.1 53.86,81.1 17.03,0 30.03,-7.74 40.55,-21.67l3.1 17.95 23.53 0 0 -228.45 -28.79 0zm-30.34 210.81c-19.5,0 -31.88,-18.26 -31.88,-59.74 0,-46.74 16.41,-61.6 35.29,-61.6 11.45,0 20.43,4.02 27.24,11.14l0 92.87c-8.05,11.14 -17.95,17.34 -30.65,17.34zm265.6 17.64l0 -221.64 27.24 0 0 221.64 -27.24 0zm68.77 0l0 -221.64 27.24 0 0 221.64 -27.24 0z"/>
   </clipPath>
   <clipPath id="id2">
    <path d="M349.33 155.83c5.81,-14.07 -15.91,-20.09 -20,-7.82 -4.8,14.4 14.5,21.14 20,7.82z"/>
   </clipPath>
   <clipPath id="id3">
    <path d="M405.31 98.09c4.26,-10.32 -11.66,-14.73 -14.67,-5.74 -3.52,10.56 10.63,15.5 14.67,5.74z"/>
   </clipPath>
   <clipPath id="id4">
    <path d="M377.69 128.04c4.84,-11.72 -13.26,-16.75 -16.67,-6.52 -4,12 12.08,17.62 16.67,6.52z"/>
   </clipPath>
   <clipPath id="id5">
    <path d="M316.75 198.39c9.69,-23.44 -26.51,-33.49 -33.33,-13.04 -8.01,24.01 24.16,35.23 33.33,13.04z"/>
   </clipPath>
    <clipPath id="id6">
     <rect x="412.89" y="14.53" width="60.25" height="60.25"/>
    </clipPath>
    <clipPath id="id7">
     <rect x="417.32" y="18.96" width="51.39" height="51.39"/>
    </clipPath>
    <clipPath id="id8">
     <rect x="420.61" y="22.25" width="44.81" height="44.81"/>
    </clipPath>
  <linearGradient id="id9" gradientUnits="userSpaceOnUse" x1="190.56" y1="483.81" x2="725.93" y2="483.81">
   <stop offset="0" style="stop-opacity:1; stop-color:#E57D67"/>
   <stop offset="1" style="stop-opacity:1; stop-color:#F4BD76"/>
  </linearGradient>
  <linearGradient id="id10" gradientUnits="userSpaceOnUse" xlink:href="#id9" x1="21.93" y1="196.09" x2="661.96" y2="106.26">
  </linearGradient>
  <linearGradient id="id11" gradientUnits="userSpaceOnUse" x1="427.22" y1="53.06" x2="458.8" y2="36.25">
   <stop offset="0" style="stop-opacity:1; stop-color:#FA7346"/>
   <stop offset="1" style="stop-opacity:1; stop-color:#E83C03"/>
  </linearGradient>
 </defs>
 <g id="Layer_x0020_1">
  <metadata id="CorelCorpID_0Corel-Layer"/>
  <path class="fil0" d="M132.1 294.9c93.24,29.52 142.85,-37.25 164.54,-51.24 -6.97,-16.53 -31.54,-39.01 -46.88,-48.43 -83.93,100.11 -187.07,5.26 -156.98,-73.46 13.74,-35.94 50.89,-64.69 105.25,-53.44 40.98,8.48 124.27,111.36 168.14,153.49 29.97,28.78 54.96,55.89 91.28,69.05 83.18,30.14 157.1,-11.52 192.15,-94.03 4.92,-9.75 5.94,-19.5 7.05,-28.88 1.34,-11.25 2.14,-21.97 0.94,-31.53 -2.58,-20.55 -8.52,-36.93 -18.26,-59.29 -28,-53.92 -74.58,-74.08 -131.4,-74.08l1.19 62c123.93,25.74 95.68,135.39 40.09,164.13 -48.64,25.14 -82.73,0.69 -106.34,-24.43 -35.83,-38.12 -75.7,-71.96 -108.39,-107.34 -74.41,-80.55 -174.72,-145.91 -268.79,-48.89 -74.06,76.39 -41.43,212.24 66.41,246.38z"/>
  <g style="clip-path:url(#id0)">
   <g id="_2464895981136">
    <rect class="fil1 str0" x="17.33" y="-86.09" width="649.23" height="474.54"/>
   </g>
  </g>
  <path class="fil2" d="M132.1 294.9c93.24,29.52 142.85,-37.25 164.54,-51.24 -6.97,-16.53 -31.54,-39.01 -46.88,-48.43 -83.93,100.11 -187.07,5.26 -156.98,-73.46 13.74,-35.94 50.89,-64.69 105.25,-53.44 40.98,8.48 124.27,111.36 168.14,153.49 29.97,28.78 54.96,55.89 91.28,69.05 83.18,30.14 157.1,-11.52 192.15,-94.03 4.92,-9.75 5.94,-19.5 7.05,-28.88 1.34,-11.25 2.14,-21.97 0.94,-31.53 -2.58,-20.55 -8.52,-36.93 -18.26,-59.29 -28,-53.92 -74.58,-74.08 -131.4,-74.08l1.19 62c123.93,25.74 95.68,135.39 40.09,164.13 -48.64,25.14 -82.73,0.69 -106.34,-24.43 -35.83,-38.12 -75.7,-71.96 -108.39,-107.34 -74.41,-80.55 -174.72,-145.91 -268.79,-48.89 -74.06,76.39 -41.43,212.24 66.41,246.38z"/>
  <path class="fil3 str1" d="M141.03 387.84l-51.39 127.85 -0.93 0 -51.7 -127.85 -36.53 0 0 212.05 28.17 0 0 -168.09 47.67 112.99 26 0 47.05 -113.61 0 168.71 28.79 0 0 -212.05 -37.15 0zm420.07 212.05l31.58 0 -60.98 -212.05 -35.6 0 -61.6 212.05 30.03 0 12.69 -48.91 71.2 0 12.69 48.91zm-77.7 -72.13l29.41 -112.06 0.93 0 28.79 112.06 -59.13 0z"/>
  <path class="fil3" d="M230.54 410.44c10.22,0 17.95,-7.74 17.95,-17.34 0,-9.91 -7.74,-17.64 -17.95,-17.64 -9.91,0 -17.95,7.74 -17.95,17.64 0,9.6 8.05,17.34 17.95,17.34zm-14.86 185.73l28.79 0 0 -157.56 -28.79 0 0 157.56zm156.94 -228.45l0 81.41c-8.05,-8.05 -19.81,-13.93 -34.05,-13.93 -33.74,0 -58.2,29.41 -58.2,83.58 0,54.48 21.67,81.1 53.86,81.1 17.03,0 30.03,-7.74 40.55,-21.67l3.1 17.95 23.53 0 0 -228.45 -28.79 0zm-30.34 210.81c-19.5,0 -31.88,-18.26 -31.88,-59.74 0,-46.74 16.41,-61.6 35.29,-61.6 11.45,0 20.43,4.02 27.24,11.14l0 92.87c-8.05,11.14 -17.95,17.34 -30.65,17.34zm265.6 17.64l0 -221.64 27.24 0 0 221.64 -27.24 0zm68.77 0l0 -221.64 27.24 0 0 221.64 -27.24 0z"/>
  <g style="clip-path:url(#id1)">
   <g id="_2464895984208">
    <rect class="fil4 str0" x="190.56" y="352.32" width="535.37" height="262.97"/>
   </g>
  </g>
  <path class="fil5" d="M230.54 410.44c10.22,0 17.95,-7.74 17.95,-17.34 0,-9.91 -7.74,-17.64 -17.95,-17.64 -9.91,0 -17.95,7.74 -17.95,17.64 0,9.6 8.05,17.34 17.95,17.34zm-14.86 185.73l28.79 0 0 -157.56 -28.79 0 0 157.56zm156.94 -228.45l0 81.41c-8.05,-8.05 -19.81,-13.93 -34.05,-13.93 -33.74,0 -58.2,29.41 -58.2,83.58 0,54.48 21.67,81.1 53.86,81.1 17.03,0 30.03,-7.74 40.55,-21.67l3.1 17.95 23.53 0 0 -228.45 -28.79 0zm-30.34 210.81c-19.5,0 -31.88,-18.26 -31.88,-59.74 0,-46.74 16.41,-61.6 35.29,-61.6 11.45,0 20.43,4.02 27.24,11.14l0 92.87c-8.05,11.14 -17.95,17.34 -30.65,17.34zm265.6 17.64l0 -221.64 27.24 0 0 221.64 -27.24 0zm68.77 0l0 -221.64 27.24 0 0 221.64 -27.24 0z"/>
  <path class="fil6" d="M349.33 155.83c5.81,-14.07 -15.91,-20.09 -20,-7.82 -4.8,14.4 14.5,21.14 20,7.82z"/>
  <g style="clip-path:url(#id2)">
   <g id="_2464895986896">
    <rect class="fil6 str2" x="209.95" y="107.05" width="194.76" height="142.36"/>
   </g>
  </g>
  <path class="fil2 str2" d="M349.33 155.83c5.81,-14.07 -15.91,-20.09 -20,-7.82 -4.8,14.4 14.5,21.14 20,7.82z"/>
  <path class="fil6" d="M405.31 98.09c4.26,-10.32 -11.66,-14.73 -14.67,-5.74 -3.52,10.56 10.63,15.5 14.67,5.74z"/>
  <g style="clip-path:url(#id3)">
   <g id="_2464896012096">
    <rect class="fil6 str2" x="303.11" y="62.31" width="142.83" height="104.4"/>
   </g>
  </g>
  <path class="fil2 str2" d="M405.31 98.09c4.26,-10.32 -11.66,-14.73 -14.67,-5.74 -3.52,10.56 10.63,15.5 14.67,5.74z"/>
  <path class="fil6" d="M377.69 128.04c4.84,-11.72 -13.26,-16.75 -16.67,-6.52 -4,12 12.08,17.62 16.67,6.52z"/>
  <g style="clip-path:url(#id4)">
   <g id="_2464896014400">
    <rect class="fil6 str2" x="261.54" y="87.38" width="162.31" height="118.63"/>
   </g>
  </g>
  <path class="fil2 str2" d="M377.69 128.04c4.84,-11.72 -13.26,-16.75 -16.67,-6.52 -4,12 12.08,17.62 16.67,6.52z"/>
  <path class="fil6" d="M316.75 198.39c9.69,-23.44 -26.51,-33.49 -33.33,-13.04 -8.01,24.01 24.16,35.23 33.33,13.04z"/>
  <g style="clip-path:url(#id5)">
   <g id="_2464896016368">
    <rect class="fil6 str2" x="84.46" y="117.09" width="324.62" height="237.27"/>
   </g>
  </g>
  <path class="fil2 str2" d="M316.75 198.39c9.69,-23.44 -26.51,-33.49 -33.33,-13.04 -8.01,24.01 24.16,35.23 33.33,13.04z"/>
  <g id="_2464896021360">
   <g style="clip-path:url(#id6)">
    <image x="412.89" y="14.53" width="60.25" height="60.25" xlink:href="ICON MidAll_Images\ICON MidAll_ImgID1.png"/>
   </g>
  </g>
  <g id="_2464896023904">
   <g style="clip-path:url(#id7)">
    <image x="417.32" y="18.96" width="51.39" height="51.39" xlink:href="ICON MidAll_Images\ICON MidAll_ImgID2.png"/>
   </g>
  </g>
  <g id="_2464896026448">
   <g style="clip-path:url(#id8)">
    <image x="420.61" y="22.25" width="44.81" height="44.81" xlink:href="ICON MidAll_Images\ICON MidAll_ImgID3.png"/>
   </g>
  </g>
  <path class="fil7 str3" d="M443.01 26.77c9.88,0 17.89,8.01 17.89,17.89 0,9.88 -8.01,17.89 -17.89,17.89 -9.88,0 -17.89,-8.01 -17.89,-17.89 0,-9.88 8.01,-17.89 17.89,-17.89z"/>
  <g id="_2464896031056">
   <path class="fil8" d="M443.89 53.72c-0.05,-0.6 -0.26,-1.54 -0.31,-2.14l3.64 -3.67c-0.1,0.55 -0.19,1.81 -0.28,2.53 -0.06,0.45 -0.08,0.33 -0.75,0.99 -0.34,0.34 -2.1,2.15 -2.31,2.29zm9.52 -19.88l0.49 0c0.26,0.03 0.47,0.13 0.47,0.36 0,1.04 -0.24,2.72 -0.46,3.68 -0.26,1.16 -0.49,1.96 -0.93,3.04 -0.28,0.71 -0.91,1.91 -1.41,2.55 -0.7,0.88 -2.09,2.18 -2.92,3.01 -0.09,0.09 -0.15,0.15 -0.25,0.24 -0.15,0.15 -0.12,0.08 -0.16,0.33l-0.3 2.69c-0.02,0.29 -0.06,0.57 -0.1,0.88 -0.04,0.41 -0.02,0.47 -0.27,0.71l-2.96 2.96c-0.34,0.34 -0.76,0.88 -1.08,0.88 -0.18,0 -0.35,-0.17 -0.4,-0.31l-0.36 -2.45c-0.05,-0.39 -0,-0.39 -0.16,-0.55 -0.14,-0.15 -0.56,-0.61 -0.73,-0.65 -0.04,0.16 -0.23,0.43 -0.31,0.58l-0.65 1.09c-0.46,0.78 -0.85,0.25 -1.32,-0.23l-3.39 -3.39c-0.23,-0.23 -1.28,-1.17 -1.28,-1.44 0,-0.44 0.35,-0.53 0.94,-0.88 0.19,-0.12 0.94,-0.59 1.1,-0.63 -0.05,-0.18 -0.2,-0.27 -0.32,-0.39 -0.12,-0.12 -0.23,-0.25 -0.35,-0.36 -0.13,-0.12 -0.05,-0.07 -0.26,-0.1l-2.15 -0.3c-0.26,-0.04 -0.89,-0.04 -0.89,-0.49 0,-0.3 0.25,-0.45 0.41,-0.61l3.45 -3.46c0.13,-0.13 0.14,-0.17 0.33,-0.2l1.32 -0.15c0.56,-0.05 1.18,-0.12 1.76,-0.2 0.31,-0.04 0.62,-0.05 0.88,-0.1 0.23,-0.04 0.17,-0.02 0.31,-0.18 0.09,-0.1 0.15,-0.15 0.24,-0.25 0.8,-0.79 2.28,-2.36 3.02,-2.91 0.7,-0.53 1.76,-1.09 2.56,-1.41 1.15,-0.46 1.88,-0.65 3.05,-0.92 1.11,-0.26 1.57,-0.25 2.55,-0.39 0.08,-0.01 0.27,-0.05 0.49,-0.06zm-17.27 14c0.17,-0.04 1.29,-0.75 1.56,-0.89l3.56 3.58c-0.17,0.33 -0.84,1.37 -0.88,1.55 -0.22,-0.06 -1.96,-1.89 -2.15,-2.08 -0.28,-0.28 -1.9,-1.8 -2.08,-2.15zm-1.65 -3.52c0.18,-0.27 0.85,-0.87 1.13,-1.15l1.69 -1.69c0.26,-0.27 0.22,-0.17 0.9,-0.26 0.37,-0.05 0.68,-0.08 1.05,-0.11 0.28,-0.03 0.77,-0.07 1.03,-0.13 -0.15,0.22 -2.55,2.57 -3.02,3.04 -0.76,0.76 -0.38,0.65 -1.69,0.46 -0.36,-0.05 -0.76,-0.13 -1.09,-0.16zm9.67 5.35c-0.13,-0.2 -1.73,-1.75 -2.04,-2.06 -0.35,-0.35 -0.67,-0.67 -1.02,-1.03 -0.16,-0.15 -0.35,-0.41 -0.55,-0.48 -0.22,-0.08 -0.58,0.05 -0.58,0.45 0,0.32 0.61,0.81 0.81,1.01 0.37,0.37 2.56,2.6 2.75,2.73l-0.61 0.63 -5.61 -5.64c0.13,-0.21 5.95,-5.98 6.44,-6.46 0.44,-0.44 0.83,-0.87 1.32,-1.27 0.56,-0.45 0.96,-0.67 1.57,-1.01 0.84,-0.47 1.38,-0.56 1.85,-0.78l3.96 3.98 -0.29 0.8c-0.12,0.31 -0.24,0.52 -0.36,0.8 -0.25,0.54 -0.52,0.96 -0.84,1.43 -0.52,0.79 -3.83,3.97 -4.48,4.61 -0.34,0.34 -2.1,2.14 -2.31,2.28zm8.6 -10.92l-3.31 -3.29 0.96 -0.22c0.33,-0.08 0.62,-0.14 0.97,-0.19 0.45,-0.07 1.63,-0.26 2.06,-0.26 0,0.43 -0.19,1.61 -0.26,2.06l-0.41 1.91z"/>
   <path class="fil8" d="M446.25 43.91l-0.36 0c-0.8,0 -1.6,-0.8 -1.6,-1.6 0,-0.56 0.07,-1.03 0.56,-1.45 0.55,-0.46 1.25,-0.62 1.91,-0.31 0.43,0.2 0.69,0.46 0.89,0.89 0.57,1.19 -0.46,2.47 -1.4,2.47zm-2.9 -1.78c0,2.17 2.31,3.44 4.15,2.28 0.6,-0.38 1.19,-1.25 1.19,-1.97 0,-0.87 -0.08,-1.49 -0.77,-2.17 -0.24,-0.24 -0.4,-0.35 -0.7,-0.5 -1.06,-0.53 -2.48,-0.25 -3.15,0.55 -0.37,0.43 -0.72,1.03 -0.72,1.82z"/>
   <path class="fil8" d="M431.54 56.13c0,0.39 0.14,0.53 0.53,0.53 0.21,0 2.26,-2.15 2.55,-2.44 0.29,-0.29 2.44,-2.35 2.44,-2.55 0,-0.41 -0.12,-0.53 -0.53,-0.53 -0.2,0 -1.12,1 -1.3,1.19l-2.5 2.5c-0.19,0.19 -1.19,1.1 -1.19,1.3z"/>
   <path class="fil8" d="M435.06 56.04c0.43,0 0.78,-0.49 1.1,-0.81l1.83 -1.83c0.13,-0.13 0.33,-0.3 0.35,-0.53 0.02,-0.22 -0.15,-0.48 -0.47,-0.48 -0.25,0 -0.71,0.55 -0.97,0.81l-1.83 1.83c-0.16,0.16 -0.56,0.44 -0.31,0.82 0.04,0.07 0.21,0.2 0.3,0.2z"/>
   <path class="fil8" d="M432.17 53.05c0,0.14 0.05,0.27 0.17,0.37 0.37,0.3 0.69,-0.13 0.82,-0.27l2.27 -2.27c0.19,-0.19 0.39,-0.29 0.39,-0.59 0,-0.16 -0.28,-0.82 -1.01,-0.08l-1.83 1.83c-0.2,0.2 -0.81,0.71 -0.81,1.01z"/>
   <path class="fil8" d="M439.61 45.3c0,-0.53 -0.65,-0.65 -0.86,-0.23 -0.34,0.68 0.86,0.9 0.86,0.23z"/>
  </g>
  <path class="fil9" d="M468.71 58.71c2.13,0 3.86,1.89 3.86,4.22 0,2.33 -1.73,4.22 -3.86,4.22 -2.13,0 -3.86,-1.89 -3.86,-4.22 0,-2.33 1.73,-4.22 3.86,-4.22z"/>
  <path class="fil10" d="M418.35 20.48c2.13,0 3.86,1.89 3.86,4.22 0,2.33 -1.73,4.22 -3.86,4.22 -2.13,0 -3.86,-1.89 -3.86,-4.22 0,-2.33 1.73,-4.22 3.86,-4.22z"/>
 </g>
</svg>
